G04 Layer: TopSolderMaskLayer*
G04 EasyEDA v6.5.1, 2022-08-30 01:02:35*
G04 a67cddfb3fce44daa9051d46cbbcc19f,10*
G04 Gerber Generator version 0.2*
G04 Scale: 100 percent, Rotated: No, Reflected: No *
G04 Dimensions in millimeters *
G04 leading zeros omitted , absolute positions ,4 integer and 5 decimal *
%FSLAX45Y45*%
%MOMM*%

%ADD26C,1.3015*%
%ADD27C,2.6017*%
%ADD28C,1.4016*%
%ADD30C,1.7016*%
%ADD32C,1.6016*%
%ADD33C,2.1016*%

%LPD*%
D26*
X4903025Y735507D02*
G01*
X4843005Y735507D01*
X4903025Y935507D02*
G01*
X4843005Y935507D01*
X5157025Y735507D02*
G01*
X5097005Y735507D01*
D27*
X4397502Y379521D02*
G01*
X4397502Y549508D01*
X5602503Y379521D02*
G01*
X5602503Y549508D01*
D26*
X5157025Y935507D02*
G01*
X5097005Y935507D01*
D28*
X5359984Y204993D02*
G01*
X5359984Y114993D01*
X4639995Y204993D02*
G01*
X4639995Y114993D01*
G36*
X6279895Y1164844D02*
G01*
X6279895Y1335023D01*
X6450075Y1335023D01*
X6450075Y1164844D01*
G37*
D30*
G01*
X6619011Y1250010D03*
G01*
X7127011Y1250010D03*
G01*
X7635011Y1250010D03*
G36*
X5103875Y384047D02*
G01*
X5103875Y494284D01*
X5153913Y494284D01*
X5153913Y384047D01*
G37*
G36*
X5038852Y384047D02*
G01*
X5038852Y494284D01*
X5089143Y494284D01*
X5089143Y384047D01*
G37*
G36*
X4973827Y384047D02*
G01*
X4973827Y494284D01*
X5024120Y494284D01*
X5024120Y384047D01*
G37*
G36*
X4908804Y384047D02*
G01*
X4908804Y494284D01*
X4959095Y494284D01*
X4959095Y384047D01*
G37*
G36*
X4843779Y384047D02*
G01*
X4843779Y494284D01*
X4894072Y494284D01*
X4894072Y384047D01*
G37*
D32*
G01*
X4669993Y440004D03*
G01*
X5329986Y440004D03*
D33*
G01*
X8946006Y1800021D03*
G01*
X9454006Y1800021D03*
M02*
