M48
METRIC,LZ,000.000
;FILE_FORMAT=3:3
;TYPE=PLATED
;Layer: PTH_Through
;EasyEDA v6.5.1, 2022-08-30 03:35:26
;a67cddfb3fce44daa9051d46cbbcc19f,10
;Gerber Generator version 0.2
;Holesize 1 = 0.305 mm
T01C0.305
;Holesize 2 = 0.306 mm
T02C0.306
;Holesize 3 = 0.701 mm
T03C0.701
;Holesize 4 = 0.901 mm
T04C0.901
;Holesize 5 = 1.000 mm
T05C1.000
;Holesize 6 = 1.001 mm
T06C1.001
;Holesize 7 = 1.301 mm
T07C1.301
;Holesize 8 = 1.501 mm
T08C1.501
%
G05
G90
T01
X047968Y005463
T02
X001072Y088928
X001072Y078928
X001072Y068928
X001072Y058928
X001072Y048928
X001072Y038928
X001072Y028928
X001072Y018928
X011072Y098928
X011072Y088928
X011072Y078928
X011072Y068928
X011072Y058928
X011072Y048928
X011072Y038928
X011072Y028928
X011072Y018928
X011072Y008928
X021072Y098928
X021072Y088928
X021072Y068928
X021072Y038928
X021072Y018928
X021072Y008928
X031072Y098928
X031072Y088928
X031072Y078928
X031072Y018928
X031072Y008928
X041072Y098928
X041072Y088928
X041072Y018928
X041072Y008928
X051072Y098928
X051072Y088928
X051072Y018928
X061072Y098928
X061072Y088928
X061072Y078928
X061072Y018928
X071072Y098928
X071072Y088928
X071072Y018928
X071072Y008928
X081072Y098928
X081072Y088928
X081072Y078928
X081072Y068928
X081072Y058928
X081072Y048928
X081072Y038928
X081072Y028928
X081072Y018928
X081072Y008928
X091072Y088928
X091072Y078928
X091072Y068928
X091072Y058928
X091072Y018928
T03
X053600Y001200G85X053600Y002000
X046400Y001200G85X046400Y002000
T04
X046700Y004400
X053300Y004400
T05
X063650Y012500
X066190Y012500
X071270Y012500
X076350Y012500
T06
X048730Y007355G85X048730Y007355
X048730Y009355G85X048730Y009355
X051270Y007355G85X051270Y007355
X051270Y009355G85X051270Y009355
T07
X089460Y018000
X094540Y018000
T08
X043975Y005495G85X043975Y003795
X056025Y005495G85X056025Y003795
M30
