G04 Layer: TopSilkscreenLayer*
G04 EasyEDA v6.5.1, 2022-08-30 03:35:26*
G04 a67cddfb3fce44daa9051d46cbbcc19f,10*
G04 Gerber Generator version 0.2*
G04 Scale: 100 percent, Rotated: No, Reflected: No *
G04 Dimensions in millimeters *
G04 leading zeros omitted , absolute positions ,4 integer and 5 decimal *
%FSLAX45Y45*%
%MOMM*%

%ADD10C,0.2540*%
%ADD22C,0.1270*%
%ADD23C,0.2032*%
%ADD24C,0.1524*%
%ADD25C,0.2500*%

%LPD*%
D23*
X8894899Y2655430D02*
G01*
X8904297Y2627744D01*
X8931983Y2609202D01*
X8977957Y2600058D01*
X9005897Y2600058D01*
X9051871Y2609202D01*
X9079557Y2627744D01*
X9088955Y2655430D01*
X9088955Y2673972D01*
X9079557Y2701658D01*
X9051871Y2719946D01*
X9005897Y2729344D01*
X8977957Y2729344D01*
X8931983Y2719946D01*
X8904297Y2701658D01*
X8894899Y2673972D01*
X8894899Y2655430D01*
X8894899Y2790304D02*
G01*
X9088955Y2864218D01*
X8894899Y2938132D02*
G01*
X9088955Y2864218D01*
X8894899Y3215246D02*
G01*
X8894899Y3196704D01*
X8904297Y3178162D01*
X8931983Y3169018D01*
X9088955Y3169018D01*
X8959669Y3141332D02*
G01*
X8959669Y3205848D01*
X8959669Y3322180D02*
G01*
X8968813Y3303892D01*
X8987355Y3285350D01*
X9015041Y3276206D01*
X9033583Y3276206D01*
X9061269Y3285350D01*
X9079557Y3303892D01*
X9088955Y3322180D01*
X9088955Y3349866D01*
X9079557Y3368408D01*
X9061269Y3386950D01*
X9033583Y3396094D01*
X9015041Y3396094D01*
X8987355Y3386950D01*
X8968813Y3368408D01*
X8959669Y3349866D01*
X8959669Y3322180D01*
X8959669Y3457054D02*
G01*
X9088955Y3457054D01*
X9015041Y3457054D02*
G01*
X8987355Y3466452D01*
X8968813Y3484740D01*
X8959669Y3503282D01*
X8959669Y3530968D01*
X8894899Y3808082D02*
G01*
X8894899Y3789540D01*
X8904297Y3771252D01*
X8931983Y3761854D01*
X9088955Y3761854D01*
X8959669Y3734168D02*
G01*
X8959669Y3798938D01*
X8959669Y3979786D02*
G01*
X9088955Y3979786D01*
X8987355Y3979786D02*
G01*
X8968813Y3961498D01*
X8959669Y3942956D01*
X8959669Y3915270D01*
X8968813Y3896728D01*
X8987355Y3878186D01*
X9015041Y3869042D01*
X9033583Y3869042D01*
X9061269Y3878186D01*
X9079557Y3896728D01*
X9088955Y3915270D01*
X9088955Y3942956D01*
X9079557Y3961498D01*
X9061269Y3979786D01*
X8959669Y4040746D02*
G01*
X9088955Y4040746D01*
X8996499Y4040746D02*
G01*
X8968813Y4068686D01*
X8959669Y4086974D01*
X8959669Y4114660D01*
X8968813Y4133202D01*
X8996499Y4142346D01*
X9088955Y4142346D01*
X9331909Y2500109D02*
G01*
X9322765Y2518397D01*
X9295079Y2546083D01*
X9488881Y2546083D01*
X9341053Y2616441D02*
G01*
X9331909Y2616441D01*
X9313367Y2625585D01*
X9304223Y2634729D01*
X9295079Y2653271D01*
X9295079Y2690355D01*
X9304223Y2708643D01*
X9313367Y2718041D01*
X9331909Y2727185D01*
X9350451Y2727185D01*
X9368739Y2718041D01*
X9396679Y2699499D01*
X9488881Y2607043D01*
X9488881Y2736329D01*
X9295079Y2797289D02*
G01*
X9488881Y2871203D01*
X9295079Y2945117D02*
G01*
X9488881Y2871203D01*
X9295079Y3222231D02*
G01*
X9295079Y3203689D01*
X9304223Y3185401D01*
X9331909Y3176003D01*
X9488881Y3176003D01*
X9359595Y3148317D02*
G01*
X9359595Y3213087D01*
X9359595Y3329419D02*
G01*
X9368739Y3310877D01*
X9387281Y3292589D01*
X9414967Y3283191D01*
X9433509Y3283191D01*
X9461195Y3292589D01*
X9479737Y3310877D01*
X9488881Y3329419D01*
X9488881Y3357105D01*
X9479737Y3375647D01*
X9461195Y3394189D01*
X9433509Y3403333D01*
X9414967Y3403333D01*
X9387281Y3394189D01*
X9368739Y3375647D01*
X9359595Y3357105D01*
X9359595Y3329419D01*
X9359595Y3464293D02*
G01*
X9488881Y3464293D01*
X9414967Y3464293D02*
G01*
X9387281Y3473437D01*
X9368739Y3491979D01*
X9359595Y3510521D01*
X9359595Y3538207D01*
X9295079Y3815321D02*
G01*
X9295079Y3796779D01*
X9304223Y3778237D01*
X9331909Y3769093D01*
X9488881Y3769093D01*
X9359595Y3741407D02*
G01*
X9359595Y3805923D01*
X9359595Y3987025D02*
G01*
X9488881Y3987025D01*
X9387281Y3987025D02*
G01*
X9368739Y3968483D01*
X9359595Y3950195D01*
X9359595Y3922509D01*
X9368739Y3903967D01*
X9387281Y3885425D01*
X9414967Y3876281D01*
X9433509Y3876281D01*
X9461195Y3885425D01*
X9479737Y3903967D01*
X9488881Y3922509D01*
X9488881Y3950195D01*
X9479737Y3968483D01*
X9461195Y3987025D01*
X9359595Y4047985D02*
G01*
X9488881Y4047985D01*
X9396679Y4047985D02*
G01*
X9368739Y4075671D01*
X9359595Y4094213D01*
X9359595Y4121899D01*
X9368739Y4140441D01*
X9396679Y4149585D01*
X9488881Y4149585D01*
X1229319Y377339D02*
G01*
X1210845Y395813D01*
X1183137Y405048D01*
X1146192Y405048D01*
X1118483Y395813D01*
X1100010Y377339D01*
X1100010Y358866D01*
X1109245Y340395D01*
X1118483Y331157D01*
X1136954Y321922D01*
X1192375Y303448D01*
X1210845Y294213D01*
X1220083Y284977D01*
X1229319Y266504D01*
X1229319Y238795D01*
X1210845Y220322D01*
X1183137Y211086D01*
X1146192Y211086D01*
X1118483Y220322D01*
X1100010Y238795D01*
X1290279Y405048D02*
G01*
X1290279Y211086D01*
X1290279Y405048D02*
G01*
X1419588Y211086D01*
X1419588Y405048D02*
G01*
X1419588Y211086D01*
X1489786Y321922D02*
G01*
X1480548Y312686D01*
X1489786Y303448D01*
X1499021Y312686D01*
X1489786Y321922D01*
X1489786Y257266D02*
G01*
X1480548Y248030D01*
X1489786Y238795D01*
X1499021Y248030D01*
X1489786Y257266D01*
X1100010Y905047D02*
G01*
X1100010Y711085D01*
X1100010Y905047D02*
G01*
X1164666Y905047D01*
X1192375Y895812D01*
X1210845Y877338D01*
X1220083Y858865D01*
X1229319Y831156D01*
X1229319Y784976D01*
X1220083Y757265D01*
X1210845Y738794D01*
X1192375Y720321D01*
X1164666Y711085D01*
X1100010Y711085D01*
X1401114Y840394D02*
G01*
X1401114Y711085D01*
X1401114Y812685D02*
G01*
X1382643Y831156D01*
X1364170Y840394D01*
X1336461Y840394D01*
X1317988Y831156D01*
X1299514Y812685D01*
X1290279Y784976D01*
X1290279Y766503D01*
X1299514Y738794D01*
X1317988Y720321D01*
X1336461Y711085D01*
X1364170Y711085D01*
X1382643Y720321D01*
X1401114Y738794D01*
X1489786Y905047D02*
G01*
X1489786Y748029D01*
X1499021Y720321D01*
X1517495Y711085D01*
X1535965Y711085D01*
X1462074Y840394D02*
G01*
X1526730Y840394D01*
X1596925Y784976D02*
G01*
X1707763Y784976D01*
X1707763Y803447D01*
X1698525Y821921D01*
X1689290Y831156D01*
X1670817Y840394D01*
X1643108Y840394D01*
X1624634Y831156D01*
X1606163Y812685D01*
X1596925Y784976D01*
X1596925Y766503D01*
X1606163Y738794D01*
X1624634Y720321D01*
X1643108Y711085D01*
X1670817Y711085D01*
X1689290Y720321D01*
X1707763Y738794D01*
X1777959Y821921D02*
G01*
X1768723Y812685D01*
X1777959Y803447D01*
X1787194Y812685D01*
X1777959Y821921D01*
X1777959Y757265D02*
G01*
X1768723Y748029D01*
X1777959Y738794D01*
X1787194Y748029D01*
X1777959Y757265D01*
X549910Y1455165D02*
G01*
X549910Y1261110D01*
X549910Y1455165D02*
G01*
X670052Y1455165D01*
X549910Y1362710D02*
G01*
X623823Y1362710D01*
X841755Y1390395D02*
G01*
X841755Y1261110D01*
X841755Y1362710D02*
G01*
X823468Y1381252D01*
X804926Y1390395D01*
X777239Y1390395D01*
X758697Y1381252D01*
X740155Y1362710D01*
X731012Y1335023D01*
X731012Y1316481D01*
X740155Y1288795D01*
X758697Y1270254D01*
X777239Y1261110D01*
X804926Y1261110D01*
X823468Y1270254D01*
X841755Y1288795D01*
X902715Y1390395D02*
G01*
X902715Y1261110D01*
X902715Y1353565D02*
G01*
X930655Y1381252D01*
X948944Y1390395D01*
X976629Y1390395D01*
X995171Y1381252D01*
X1004315Y1353565D01*
X1004315Y1261110D01*
X1309115Y1362710D02*
G01*
X1299971Y1381252D01*
X1272286Y1390395D01*
X1244600Y1390395D01*
X1216913Y1381252D01*
X1207515Y1362710D01*
X1216913Y1344168D01*
X1235455Y1335023D01*
X1281429Y1325626D01*
X1299971Y1316481D01*
X1309115Y1297939D01*
X1309115Y1288795D01*
X1299971Y1270254D01*
X1272286Y1261110D01*
X1244600Y1261110D01*
X1216913Y1270254D01*
X1207515Y1288795D01*
X1370076Y1390395D02*
G01*
X1370076Y1297939D01*
X1379473Y1270254D01*
X1398015Y1261110D01*
X1425702Y1261110D01*
X1443989Y1270254D01*
X1471676Y1297939D01*
X1471676Y1390395D02*
G01*
X1471676Y1261110D01*
X1532636Y1390395D02*
G01*
X1532636Y1196339D01*
X1532636Y1362710D02*
G01*
X1551178Y1381252D01*
X1569720Y1390395D01*
X1597405Y1390395D01*
X1615947Y1381252D01*
X1634236Y1362710D01*
X1643634Y1335023D01*
X1643634Y1316481D01*
X1634236Y1288795D01*
X1615947Y1270254D01*
X1597405Y1261110D01*
X1569720Y1261110D01*
X1551178Y1270254D01*
X1532636Y1288795D01*
X1704594Y1390395D02*
G01*
X1704594Y1196339D01*
X1704594Y1362710D02*
G01*
X1723136Y1381252D01*
X1741423Y1390395D01*
X1769110Y1390395D01*
X1787652Y1381252D01*
X1806194Y1362710D01*
X1815337Y1335023D01*
X1815337Y1316481D01*
X1806194Y1288795D01*
X1787652Y1270254D01*
X1769110Y1261110D01*
X1741423Y1261110D01*
X1723136Y1270254D01*
X1704594Y1288795D01*
X1876297Y1455165D02*
G01*
X1876297Y1261110D01*
X1946656Y1390395D02*
G01*
X2002027Y1261110D01*
X2057400Y1390395D02*
G01*
X2002027Y1261110D01*
X1983486Y1224026D01*
X1964943Y1205737D01*
X1946656Y1196339D01*
X1937258Y1196339D01*
X2260600Y1344168D02*
G01*
X2426715Y1344168D01*
X2629915Y1455165D02*
G01*
X2703829Y1261110D01*
X2777743Y1455165D02*
G01*
X2703829Y1261110D01*
X2838704Y1335023D02*
G01*
X2949702Y1335023D01*
X2949702Y1353565D01*
X2940304Y1371854D01*
X2931159Y1381252D01*
X2912618Y1390395D01*
X2884931Y1390395D01*
X2866390Y1381252D01*
X2848102Y1362710D01*
X2838704Y1335023D01*
X2838704Y1316481D01*
X2848102Y1288795D01*
X2866390Y1270254D01*
X2884931Y1261110D01*
X2912618Y1261110D01*
X2931159Y1270254D01*
X2949702Y1288795D01*
X3010661Y1390395D02*
G01*
X3010661Y1261110D01*
X3010661Y1335023D02*
G01*
X3019806Y1362710D01*
X3038347Y1381252D01*
X3056636Y1390395D01*
X3084575Y1390395D01*
X3247136Y1362710D02*
G01*
X3237738Y1381252D01*
X3210052Y1390395D01*
X3182365Y1390395D01*
X3154679Y1381252D01*
X3145536Y1362710D01*
X3154679Y1344168D01*
X3173222Y1335023D01*
X3219195Y1325626D01*
X3237738Y1316481D01*
X3247136Y1297939D01*
X3247136Y1288795D01*
X3237738Y1270254D01*
X3210052Y1261110D01*
X3182365Y1261110D01*
X3154679Y1270254D01*
X3145536Y1288795D01*
X3308095Y1455165D02*
G01*
X3317240Y1445768D01*
X3326384Y1455165D01*
X3317240Y1464310D01*
X3308095Y1455165D01*
X3317240Y1390395D02*
G01*
X3317240Y1261110D01*
X3433572Y1390395D02*
G01*
X3415029Y1381252D01*
X3396741Y1362710D01*
X3387343Y1335023D01*
X3387343Y1316481D01*
X3396741Y1288795D01*
X3415029Y1270254D01*
X3433572Y1261110D01*
X3461258Y1261110D01*
X3479800Y1270254D01*
X3498341Y1288795D01*
X3507486Y1316481D01*
X3507486Y1335023D01*
X3498341Y1362710D01*
X3479800Y1381252D01*
X3461258Y1390395D01*
X3433572Y1390395D01*
X3568445Y1390395D02*
G01*
X3568445Y1261110D01*
X3568445Y1353565D02*
G01*
X3596131Y1381252D01*
X3614674Y1390395D01*
X3642359Y1390395D01*
X3660902Y1381252D01*
X3670045Y1353565D01*
X3670045Y1261110D01*
X3873245Y1418081D02*
G01*
X3891788Y1427226D01*
X3919474Y1455165D01*
X3919474Y1261110D01*
X3989577Y1307337D02*
G01*
X3980434Y1297939D01*
X3989577Y1288795D01*
X3998975Y1297939D01*
X3989577Y1307337D01*
X4059936Y1418081D02*
G01*
X4078224Y1427226D01*
X4105909Y1455165D01*
X4105909Y1261110D01*
D24*
X7000001Y465315D02*
G01*
X7000001Y387337D01*
X7005081Y371843D01*
X7015495Y361429D01*
X7031243Y356349D01*
X7041657Y356349D01*
X7057151Y361429D01*
X7067565Y371843D01*
X7072645Y387337D01*
X7072645Y465315D01*
X7106935Y444487D02*
G01*
X7117349Y449821D01*
X7133097Y465315D01*
X7133097Y356349D01*
X5053175Y1258133D02*
G01*
X5053175Y1175075D01*
X5047841Y1159581D01*
X5042761Y1154247D01*
X5032347Y1149167D01*
X5021933Y1149167D01*
X5011519Y1154247D01*
X5006439Y1159581D01*
X5001105Y1175075D01*
X5001105Y1185489D01*
X5087465Y1237559D02*
G01*
X5097879Y1242639D01*
X5113373Y1258133D01*
X5113373Y1149167D01*
X5597916Y167970D02*
G01*
X5514858Y167970D01*
X5499110Y173050D01*
X5494030Y178384D01*
X5488950Y188544D01*
X5488950Y198958D01*
X5494030Y209372D01*
X5499110Y214706D01*
X5514858Y219786D01*
X5525272Y219786D01*
X5572008Y128346D02*
G01*
X5577088Y128346D01*
X5587502Y123266D01*
X5592836Y117932D01*
X5597916Y107518D01*
X5597916Y86944D01*
X5592836Y76530D01*
X5587502Y71196D01*
X5577088Y66116D01*
X5566674Y66116D01*
X5556260Y71196D01*
X5540766Y81610D01*
X5488950Y133680D01*
X5488950Y60782D01*
X9152069Y1215278D02*
G01*
X9152069Y1132220D01*
X9146735Y1116726D01*
X9141655Y1111392D01*
X9131241Y1106312D01*
X9120827Y1106312D01*
X9110413Y1111392D01*
X9105079Y1116726D01*
X9099999Y1132220D01*
X9099999Y1142634D01*
X9196519Y1215278D02*
G01*
X9253669Y1215278D01*
X9222681Y1173876D01*
X9238175Y1173876D01*
X9248589Y1168542D01*
X9253669Y1163462D01*
X9259003Y1147714D01*
X9259003Y1137300D01*
X9253669Y1121806D01*
X9243509Y1111392D01*
X9227761Y1106312D01*
X9212267Y1106312D01*
X9196519Y1111392D01*
X9191439Y1116726D01*
X9186359Y1127140D01*
G36*
X1900021Y550011D02*
G01*
X1900021Y150012D01*
X4100017Y150012D01*
X4100017Y550011D01*
G37*
G36*
X1899970Y1049985D02*
G01*
X1899970Y649986D01*
X4100017Y649986D01*
X4100017Y1049985D01*
G37*
D10*
X6144000Y640001D02*
G01*
X6144000Y1351600D01*
X8117601Y1351600D01*
X8117601Y640400D01*
X6144000Y640001D02*
G01*
X8109000Y640001D01*
D22*
X5600001Y-364495D02*
G01*
X4400001Y-364497D01*
D10*
X4400001Y1054506D02*
G01*
X4400001Y687603D01*
X4400001Y241416D02*
G01*
X4400001Y-575495D01*
X4400001Y-575495D02*
G01*
X5600001Y-575495D01*
X5600001Y-575495D02*
G01*
X5600001Y241416D01*
X5600001Y687603D02*
G01*
X5600001Y1054506D01*
X5599998Y1054506D02*
G01*
X4400001Y1054506D01*
X5399999Y-100751D02*
G01*
X4600000Y-100751D01*
X5338988Y-29758D02*
G01*
X4662002Y-29758D01*
X5397992Y-100751D02*
G01*
X5397992Y-88762D01*
X5338988Y-29758D01*
X4602998Y-98745D02*
G01*
X4602998Y-88762D01*
X4662002Y-29758D01*
X5238061Y474228D02*
G01*
X5174574Y474228D01*
X4823343Y474228D02*
G01*
X4761938Y474228D01*
X5399999Y371368D02*
G01*
X5399999Y283471D01*
X5399999Y36517D02*
G01*
X5399999Y-100751D01*
X4600000Y371368D02*
G01*
X4600000Y283471D01*
X4600000Y36517D02*
G01*
X4600000Y-88762D01*
X8691999Y2365999D02*
G01*
X8691999Y1349999D01*
X8691999Y2365999D02*
G01*
X9705383Y2365999D01*
X8691999Y1349999D02*
G01*
X9705383Y1349999D01*
X8691999Y2266863D02*
G01*
X9703630Y2266863D01*
X9707999Y2365745D02*
G01*
X9707999Y1349745D01*
X8691999Y1389496D02*
G01*
X9706526Y1389496D01*
X9500989Y2267752D02*
G01*
X9597001Y2363764D01*
X9407999Y2267752D02*
G01*
X9311987Y2363764D01*
X9029006Y2269581D02*
G01*
X9125018Y2365593D01*
X8909982Y2269581D02*
G01*
X8813970Y2365593D01*
D25*
X2000001Y7999999D02*
G01*
X7999999Y7999999D01*
X7999999Y2000001D01*
X2000001Y2000001D01*
X2000001Y7999999D01*
X1750009Y8249996D02*
G01*
X8250021Y8249996D01*
X8250021Y1749983D01*
X1750009Y1749983D01*
X1750009Y8249996D01*
M02*
