G04 Layer: TopLayer*
G04 EasyEDA v6.5.1, 2022-08-30 03:35:26*
G04 a67cddfb3fce44daa9051d46cbbcc19f,10*
G04 Gerber Generator version 0.2*
G04 Scale: 100 percent, Rotated: No, Reflected: No *
G04 Dimensions in millimeters *
G04 leading zeros omitted , absolute positions ,4 integer and 5 decimal *
%FSLAX45Y45*%
%MOMM*%

%ADD11C,2.0000*%
%ADD12C,1.0000*%
%ADD13C,0.6096*%
%ADD14C,0.6100*%
%ADD15R,0.4000X1.0000*%
%ADD17C,1.6000*%
%ADD18C,1.5000*%
%ADD19C,1.1999*%
%ADD20C,2.5001*%
%ADD21C,1.3000*%

%LPD*%
G36*
X731012Y25908D02*
G01*
X727202Y26670D01*
X723950Y28803D01*
X721715Y32004D01*
X720852Y35864D01*
X721563Y39674D01*
X723595Y43027D01*
X726795Y45313D01*
X730402Y46939D01*
X757834Y61722D01*
X784301Y78130D01*
X809701Y96164D01*
X833932Y115722D01*
X856945Y136702D01*
X878586Y159105D01*
X898855Y182778D01*
X917549Y207670D01*
X934719Y233629D01*
X950264Y260654D01*
X964133Y288544D01*
X976223Y317246D01*
X986485Y346659D01*
X994968Y376631D01*
X1001572Y407060D01*
X1006297Y437845D01*
X1009091Y468884D01*
X1010005Y499973D01*
X1009091Y531114D01*
X1006297Y562152D01*
X1001572Y592937D01*
X994968Y623366D01*
X986485Y653338D01*
X976223Y682752D01*
X964133Y711454D01*
X950264Y739343D01*
X934719Y766368D01*
X917549Y792327D01*
X898855Y817219D01*
X878586Y840892D01*
X856945Y863295D01*
X833932Y884275D01*
X809701Y903833D01*
X784301Y921867D01*
X757834Y938276D01*
X730402Y953058D01*
X702106Y966063D01*
X673049Y977341D01*
X643382Y986790D01*
X613206Y994410D01*
X582574Y1000150D01*
X551637Y1003960D01*
X520547Y1005890D01*
X489407Y1005890D01*
X458317Y1003960D01*
X427431Y1000150D01*
X396798Y994410D01*
X366623Y986790D01*
X336956Y977341D01*
X307898Y966063D01*
X279603Y953058D01*
X252171Y938276D01*
X225704Y921867D01*
X200304Y903833D01*
X176072Y884275D01*
X153060Y863295D01*
X131419Y840892D01*
X111150Y817219D01*
X92405Y792327D01*
X75234Y766368D01*
X59740Y739343D01*
X45872Y711454D01*
X43230Y707085D01*
X39928Y704900D01*
X36017Y704138D01*
X32156Y704951D01*
X28854Y707136D01*
X26670Y710438D01*
X25908Y714298D01*
X25908Y9285681D01*
X26670Y9289542D01*
X28854Y9292844D01*
X32156Y9295079D01*
X36017Y9295841D01*
X39928Y9295079D01*
X43230Y9292894D01*
X45872Y9288526D01*
X59740Y9260636D01*
X75234Y9233662D01*
X92405Y9207652D01*
X111150Y9182760D01*
X131419Y9159087D01*
X153060Y9136735D01*
X176072Y9115704D01*
X200304Y9096146D01*
X225704Y9078112D01*
X252171Y9061704D01*
X279603Y9046972D01*
X307898Y9033916D01*
X336956Y9022638D01*
X366623Y9013190D01*
X396798Y9005620D01*
X427431Y8999880D01*
X458317Y8996019D01*
X489407Y8994089D01*
X520547Y8994089D01*
X551637Y8996019D01*
X582574Y8999880D01*
X613206Y9005620D01*
X643382Y9013190D01*
X673049Y9022638D01*
X702106Y9033916D01*
X730402Y9046972D01*
X757834Y9061704D01*
X784301Y9078112D01*
X809701Y9096146D01*
X833932Y9115704D01*
X856945Y9136735D01*
X878586Y9159087D01*
X898855Y9182760D01*
X917549Y9207652D01*
X934719Y9233662D01*
X950264Y9260636D01*
X964133Y9288526D01*
X976223Y9317228D01*
X986485Y9346641D01*
X994968Y9376613D01*
X1001572Y9407042D01*
X1006297Y9437827D01*
X1009091Y9468866D01*
X1010005Y9499955D01*
X1009091Y9531146D01*
X1006297Y9562134D01*
X1001572Y9592919D01*
X994968Y9623399D01*
X986485Y9653371D01*
X976223Y9682734D01*
X964133Y9711436D01*
X950264Y9739376D01*
X934719Y9766350D01*
X917549Y9792360D01*
X898855Y9817201D01*
X878586Y9840925D01*
X856945Y9863277D01*
X833932Y9884308D01*
X809701Y9903866D01*
X784301Y9921849D01*
X757834Y9938258D01*
X730402Y9953040D01*
X726795Y9954717D01*
X723595Y9957003D01*
X721512Y9960305D01*
X720852Y9964166D01*
X721715Y9967976D01*
X723900Y9971176D01*
X727202Y9973360D01*
X731012Y9974072D01*
X9278975Y9974072D01*
X9282785Y9973360D01*
X9286087Y9971176D01*
X9288272Y9967976D01*
X9289135Y9964166D01*
X9288475Y9960305D01*
X9286392Y9957003D01*
X9283242Y9954717D01*
X9279585Y9953040D01*
X9252153Y9938308D01*
X9225686Y9921849D01*
X9200286Y9903866D01*
X9176054Y9884308D01*
X9153042Y9863277D01*
X9131401Y9840925D01*
X9111183Y9817201D01*
X9092438Y9792360D01*
X9075267Y9766350D01*
X9059722Y9739376D01*
X9045905Y9711436D01*
X9033814Y9682734D01*
X9023502Y9653371D01*
X9015018Y9623399D01*
X9008414Y9592919D01*
X9003690Y9562134D01*
X9000896Y9531146D01*
X8999982Y9500006D01*
X9000896Y9468866D01*
X9003690Y9437827D01*
X9008414Y9407042D01*
X9015018Y9376613D01*
X9023502Y9346641D01*
X9033814Y9317228D01*
X9045905Y9288526D01*
X9059722Y9260636D01*
X9075267Y9233662D01*
X9092438Y9207652D01*
X9111183Y9182760D01*
X9131401Y9159087D01*
X9153042Y9136735D01*
X9176054Y9115704D01*
X9200286Y9096146D01*
X9225686Y9078112D01*
X9252153Y9061704D01*
X9279585Y9046972D01*
X9307880Y9033916D01*
X9336938Y9022638D01*
X9366605Y9013190D01*
X9396831Y9005620D01*
X9427413Y8999880D01*
X9458350Y8996019D01*
X9489440Y8994089D01*
X9520580Y8994089D01*
X9551670Y8996019D01*
X9582556Y8999880D01*
X9613188Y9005620D01*
X9643414Y9013190D01*
X9673082Y9022638D01*
X9702088Y9033916D01*
X9730384Y9046972D01*
X9757816Y9061704D01*
X9784283Y9078112D01*
X9809683Y9096146D01*
X9833965Y9115704D01*
X9856927Y9136735D01*
X9878618Y9159087D01*
X9898837Y9182760D01*
X9917582Y9207652D01*
X9934752Y9233662D01*
X9950297Y9260636D01*
X9954818Y9269831D01*
X9957663Y9273336D01*
X9961727Y9275216D01*
X9966248Y9275216D01*
X9970312Y9273235D01*
X9973106Y9269730D01*
X9974072Y9265310D01*
X9974072Y724611D01*
X9973106Y720242D01*
X9970312Y716686D01*
X9966248Y714705D01*
X9961727Y714705D01*
X9957663Y716584D01*
X9954818Y720090D01*
X9945268Y739343D01*
X9929723Y766368D01*
X9912553Y792327D01*
X9893858Y817219D01*
X9873589Y840892D01*
X9851948Y863295D01*
X9828936Y884275D01*
X9804704Y903833D01*
X9779304Y921867D01*
X9752838Y938276D01*
X9725406Y953058D01*
X9697110Y966063D01*
X9668052Y977341D01*
X9638385Y986790D01*
X9608210Y994410D01*
X9577578Y1000150D01*
X9546640Y1003960D01*
X9515551Y1005890D01*
X9484410Y1005890D01*
X9453321Y1003960D01*
X9422434Y1000150D01*
X9391802Y994410D01*
X9361627Y986790D01*
X9331960Y977341D01*
X9302902Y966063D01*
X9274606Y953058D01*
X9247174Y938276D01*
X9220708Y921867D01*
X9195308Y903833D01*
X9171076Y884275D01*
X9148064Y863295D01*
X9126423Y840892D01*
X9106154Y817219D01*
X9087408Y792327D01*
X9070238Y766368D01*
X9054744Y739343D01*
X9040876Y711454D01*
X9028785Y682752D01*
X9018473Y653338D01*
X9010040Y623366D01*
X9003436Y592937D01*
X8998712Y562152D01*
X8995918Y531114D01*
X8995003Y500024D01*
X8995918Y468884D01*
X8998712Y437845D01*
X9003436Y407060D01*
X9010040Y376631D01*
X9018473Y346659D01*
X9028785Y317246D01*
X9040876Y288544D01*
X9054744Y260654D01*
X9070238Y233629D01*
X9087408Y207670D01*
X9106154Y182778D01*
X9126423Y159105D01*
X9148064Y136702D01*
X9171076Y115722D01*
X9195308Y96164D01*
X9220708Y78130D01*
X9247174Y61722D01*
X9274606Y46939D01*
X9278213Y45313D01*
X9281414Y43027D01*
X9283446Y39674D01*
X9284106Y35864D01*
X9283293Y32004D01*
X9281058Y28803D01*
X9277807Y26670D01*
X9273997Y25908D01*
X5422747Y25908D01*
X5418734Y26771D01*
X5415330Y29108D01*
X5413197Y32664D01*
X5412638Y36779D01*
X5413756Y40741D01*
X5416346Y43942D01*
X5422036Y48564D01*
X5430520Y57607D01*
X5437632Y67767D01*
X5443372Y78790D01*
X5447538Y90474D01*
X5450027Y102616D01*
X5450890Y115316D01*
X5450890Y204622D01*
X5450027Y217373D01*
X5447538Y229514D01*
X5443372Y241198D01*
X5437632Y252221D01*
X5430520Y262331D01*
X5422036Y271424D01*
X5412435Y279247D01*
X5401818Y285699D01*
X5390438Y290626D01*
X5378500Y293979D01*
X5366207Y295656D01*
X5353812Y295656D01*
X5341518Y293979D01*
X5329580Y290626D01*
X5318201Y285699D01*
X5307584Y279247D01*
X5297982Y271424D01*
X5289499Y262331D01*
X5282336Y252221D01*
X5276646Y241198D01*
X5272481Y229514D01*
X5269941Y217373D01*
X5269077Y204622D01*
X5269077Y115316D01*
X5269941Y102616D01*
X5272481Y90474D01*
X5276646Y78790D01*
X5282336Y67767D01*
X5289499Y57607D01*
X5297982Y48564D01*
X5303621Y43942D01*
X5306263Y40741D01*
X5307380Y36779D01*
X5306822Y32664D01*
X5304637Y29108D01*
X5301284Y26771D01*
X5297220Y25908D01*
X4702759Y25908D01*
X4698746Y26771D01*
X4695342Y29108D01*
X4693208Y32664D01*
X4692650Y36779D01*
X4693767Y40741D01*
X4696358Y43942D01*
X4702048Y48564D01*
X4710480Y57607D01*
X4717643Y67767D01*
X4723384Y78790D01*
X4727498Y90474D01*
X4730038Y102616D01*
X4730902Y115316D01*
X4730902Y204622D01*
X4730038Y217373D01*
X4727498Y229514D01*
X4723384Y241198D01*
X4717643Y252221D01*
X4710480Y262331D01*
X4702048Y271424D01*
X4692396Y279247D01*
X4681829Y285699D01*
X4670450Y290626D01*
X4658512Y293979D01*
X4646218Y295656D01*
X4633823Y295656D01*
X4621530Y293979D01*
X4609541Y290626D01*
X4598212Y285699D01*
X4587595Y279247D01*
X4577943Y271424D01*
X4569510Y262331D01*
X4562348Y252221D01*
X4556658Y241198D01*
X4552492Y229514D01*
X4549952Y217373D01*
X4549089Y204622D01*
X4549089Y115316D01*
X4549952Y102616D01*
X4552492Y90474D01*
X4556658Y78790D01*
X4562348Y67767D01*
X4569510Y57607D01*
X4577943Y48564D01*
X4583633Y43942D01*
X4586274Y40741D01*
X4587341Y36779D01*
X4586782Y32664D01*
X4584649Y29108D01*
X4581296Y26771D01*
X4577232Y25908D01*
G37*

%LPC*%
G36*
X8450986Y2300020D02*
G01*
X9898989Y2300020D01*
X9900005Y2300986D01*
X9900005Y5398973D01*
X9898989Y5399989D01*
X8450986Y5399989D01*
X8450021Y5398973D01*
X8450021Y2300986D01*
G37*
G36*
X4397502Y228600D02*
G01*
X4414418Y229565D01*
X4431080Y232410D01*
X4447336Y237083D01*
X4462983Y243535D01*
X4477766Y251764D01*
X4491583Y261518D01*
X4504182Y272796D01*
X4515459Y285445D01*
X4525264Y299212D01*
X4533442Y314045D01*
X4539945Y329692D01*
X4544618Y345948D01*
X4547463Y362610D01*
X4548428Y379780D01*
X4548428Y549198D01*
X4547463Y566369D01*
X4544618Y583082D01*
X4539945Y599338D01*
X4533442Y614984D01*
X4525264Y629767D01*
X4515459Y643585D01*
X4504182Y656183D01*
X4491583Y667461D01*
X4477766Y677265D01*
X4462983Y685444D01*
X4447336Y691946D01*
X4431080Y696620D01*
X4414418Y699465D01*
X4397502Y700379D01*
X4380585Y699465D01*
X4363923Y696620D01*
X4347667Y691946D01*
X4332020Y685444D01*
X4317238Y677265D01*
X4303420Y667461D01*
X4290822Y656183D01*
X4279544Y643585D01*
X4269740Y629767D01*
X4261561Y614984D01*
X4255058Y599338D01*
X4250385Y583082D01*
X4247540Y566369D01*
X4246575Y549198D01*
X4246575Y379780D01*
X4247540Y362610D01*
X4250385Y345948D01*
X4255058Y329692D01*
X4261561Y314045D01*
X4269740Y299212D01*
X4279544Y285445D01*
X4290822Y272796D01*
X4303420Y261518D01*
X4317238Y251764D01*
X4332020Y243535D01*
X4347667Y237083D01*
X4363923Y232410D01*
X4380585Y229565D01*
G37*
G36*
X4802276Y284226D02*
G01*
X4812842Y284632D01*
X4823256Y286766D01*
X4833162Y290525D01*
X4842357Y295808D01*
X4850536Y302514D01*
X4857597Y310438D01*
X4863236Y319430D01*
X4867402Y329184D01*
X4869942Y339445D01*
X4870805Y350012D01*
X4870602Y352348D01*
X4871110Y356463D01*
X4873244Y360070D01*
X4876647Y362458D01*
X4880711Y363321D01*
X4888382Y363321D01*
X4894732Y364032D01*
X4898085Y365201D01*
X4901438Y365810D01*
X4904841Y365201D01*
X4908194Y364032D01*
X4914544Y363321D01*
X4953406Y363321D01*
X4959705Y364032D01*
X4963109Y365201D01*
X4966462Y365810D01*
X4969814Y365201D01*
X4973218Y364032D01*
X4979517Y363321D01*
X5018379Y363321D01*
X5024729Y364032D01*
X5028082Y365201D01*
X5031435Y365810D01*
X5034838Y365201D01*
X5038191Y364032D01*
X5044541Y363321D01*
X5083403Y363321D01*
X5089702Y364032D01*
X5093106Y365201D01*
X5096459Y365810D01*
X5099812Y365201D01*
X5103215Y364032D01*
X5109514Y363321D01*
X5119217Y363321D01*
X5123129Y362559D01*
X5126431Y360324D01*
X5128615Y357073D01*
X5129377Y353161D01*
X5129377Y344728D01*
X5131104Y334264D01*
X5134457Y324205D01*
X5139385Y314807D01*
X5145735Y306374D01*
X5153406Y299008D01*
X5162143Y292963D01*
X5171694Y288442D01*
X5181904Y285496D01*
X5192420Y284226D01*
X5202986Y284632D01*
X5213400Y286766D01*
X5223306Y290525D01*
X5232501Y295808D01*
X5240680Y302514D01*
X5247741Y310438D01*
X5253380Y319430D01*
X5257546Y329184D01*
X5260086Y339445D01*
X5260695Y346862D01*
X5261813Y350774D01*
X5264302Y353872D01*
X5267858Y355803D01*
X5271871Y356158D01*
X5275681Y354990D01*
X5287518Y348488D01*
X5300116Y343662D01*
X5313222Y340512D01*
X5326634Y339191D01*
X5340096Y339648D01*
X5353405Y341884D01*
X5366258Y345846D01*
X5378500Y351536D01*
X5389829Y358800D01*
X5400141Y367487D01*
X5409184Y377494D01*
X5416804Y388569D01*
X5422900Y400608D01*
X5427319Y413359D01*
X5429961Y426567D01*
X5430875Y439978D01*
X5429961Y453440D01*
X5427319Y466648D01*
X5422900Y479399D01*
X5416804Y491439D01*
X5409184Y502513D01*
X5400141Y512521D01*
X5389829Y521208D01*
X5378500Y528472D01*
X5366258Y534162D01*
X5353405Y538124D01*
X5340096Y540359D01*
X5326634Y540816D01*
X5313222Y539496D01*
X5300116Y536346D01*
X5287518Y531520D01*
X5275732Y525018D01*
X5264861Y517042D01*
X5255158Y507695D01*
X5246827Y497078D01*
X5239969Y485495D01*
X5234686Y473100D01*
X5231130Y460095D01*
X5229352Y446735D01*
X5229352Y433273D01*
X5230774Y422757D01*
X5230469Y418592D01*
X5228488Y414934D01*
X5225237Y412343D01*
X5221173Y411276D01*
X5217058Y411937D01*
X5213400Y413308D01*
X5202986Y415442D01*
X5192420Y415848D01*
X5181904Y414578D01*
X5171694Y411632D01*
X5165852Y408838D01*
X5161483Y407873D01*
X5145328Y407873D01*
X5145328Y396494D01*
X5144770Y393293D01*
X5143246Y390398D01*
X5139385Y385267D01*
X5134457Y375869D01*
X5132425Y369722D01*
X5130393Y366166D01*
X5127142Y363728D01*
X5123180Y362762D01*
X5119166Y363423D01*
X5115712Y365607D01*
X5113426Y368960D01*
X5112613Y372922D01*
X5112613Y411073D01*
X5110581Y414324D01*
X5109870Y418033D01*
X5109870Y460400D01*
X5110581Y464159D01*
X5112613Y467359D01*
X5112613Y515112D01*
X5109514Y515112D01*
X5103215Y514400D01*
X5099812Y513232D01*
X5096459Y512673D01*
X5093106Y513232D01*
X5089702Y514400D01*
X5083403Y515112D01*
X5044541Y515112D01*
X5038191Y514400D01*
X5034838Y513232D01*
X5031435Y512673D01*
X5028082Y513232D01*
X5024729Y514400D01*
X5018379Y515112D01*
X4979517Y515112D01*
X4973218Y514400D01*
X4969814Y513232D01*
X4966462Y512673D01*
X4963109Y513232D01*
X4959705Y514400D01*
X4953406Y515112D01*
X4922266Y515112D01*
X4918303Y515924D01*
X4915001Y518210D01*
X4912817Y521614D01*
X4908346Y532942D01*
X4902708Y542747D01*
X4895240Y552094D01*
X4818583Y634187D01*
X4816398Y637844D01*
X4815890Y642112D01*
X4817160Y646176D01*
X4820005Y649325D01*
X4823917Y651103D01*
X4828184Y651052D01*
X4830775Y650494D01*
X4843373Y649579D01*
X4902657Y649579D01*
X4915255Y650494D01*
X4927193Y653084D01*
X4938674Y657402D01*
X4949444Y663244D01*
X4959248Y670610D01*
X4967935Y679246D01*
X4975250Y689051D01*
X4981143Y699820D01*
X4985410Y711301D01*
X4988001Y723290D01*
X4988864Y735482D01*
X4988001Y747725D01*
X4985410Y759714D01*
X4981143Y771194D01*
X4975250Y781913D01*
X4967935Y791718D01*
X4959248Y800404D01*
X4949444Y807770D01*
X4938674Y813612D01*
X4927193Y817880D01*
X4915255Y820521D01*
X4902657Y821385D01*
X4843373Y821385D01*
X4830775Y820521D01*
X4818786Y817880D01*
X4807305Y813612D01*
X4796586Y807770D01*
X4792167Y804468D01*
X4788103Y802640D01*
X4783632Y802741D01*
X4779670Y804722D01*
X4776927Y808228D01*
X4775911Y812596D01*
X4775911Y858418D01*
X4776927Y862787D01*
X4779670Y866292D01*
X4783632Y868273D01*
X4788103Y868375D01*
X4792167Y866546D01*
X4796586Y863244D01*
X4807305Y857402D01*
X4818786Y853084D01*
X4830775Y850493D01*
X4843373Y849579D01*
X4902657Y849579D01*
X4915255Y850493D01*
X4927193Y853084D01*
X4938674Y857402D01*
X4949444Y863244D01*
X4959248Y870610D01*
X4967935Y879246D01*
X4975250Y889050D01*
X4981143Y899820D01*
X4984800Y909624D01*
X4987137Y913282D01*
X4990846Y915619D01*
X4995214Y916178D01*
X4999380Y914857D01*
X5002580Y911910D01*
X5004308Y907897D01*
X5004765Y905357D01*
X5009286Y890828D01*
X5015534Y876960D01*
X5023408Y863955D01*
X5032756Y852017D01*
X5043525Y841248D01*
X5055463Y831900D01*
X5058968Y829767D01*
X5062067Y826871D01*
X5063693Y822960D01*
X5063642Y818743D01*
X5061813Y814882D01*
X5058613Y812139D01*
X5050586Y807770D01*
X5040731Y800404D01*
X5032095Y791718D01*
X5024729Y781913D01*
X5019243Y771855D01*
X5075631Y771855D01*
X5075631Y806043D01*
X5076342Y809752D01*
X5078374Y812952D01*
X5081422Y815238D01*
X5085080Y816203D01*
X5088839Y815746D01*
X5096865Y813257D01*
X5111800Y810514D01*
X5127294Y809548D01*
X5168188Y809548D01*
X5172100Y808786D01*
X5175351Y806602D01*
X5177586Y803300D01*
X5178348Y799388D01*
X5178348Y771855D01*
X5234736Y771855D01*
X5229250Y781913D01*
X5221427Y792226D01*
X5219242Y795528D01*
X5218430Y799388D01*
X5219242Y803300D01*
X5221427Y806602D01*
X5224729Y808786D01*
X5228590Y809548D01*
X6235293Y809548D01*
X6243066Y809802D01*
X6250635Y810514D01*
X6258153Y811631D01*
X6265570Y813257D01*
X6272885Y815289D01*
X6280099Y817778D01*
X6287109Y820674D01*
X6293967Y823976D01*
X6300571Y827735D01*
X6306972Y831850D01*
X6313068Y836371D01*
X6318910Y841248D01*
X6324600Y846582D01*
X6453886Y975868D01*
X6459220Y981557D01*
X6464096Y987399D01*
X6468618Y993495D01*
X6472732Y999896D01*
X6476492Y1006500D01*
X6479794Y1013358D01*
X6482689Y1020368D01*
X6485178Y1027582D01*
X6487210Y1034897D01*
X6488836Y1042314D01*
X6489954Y1049832D01*
X6490665Y1057402D01*
X6490919Y1065174D01*
X6490919Y1249629D01*
X6489954Y1265123D01*
X6487210Y1280058D01*
X6482689Y1294587D01*
X6476441Y1308455D01*
X6472377Y1315212D01*
X6471259Y1317701D01*
X6470904Y1320444D01*
X6470904Y1329436D01*
X6470192Y1335735D01*
X6468262Y1341221D01*
X6465214Y1346098D01*
X6461099Y1350213D01*
X6456222Y1353261D01*
X6450736Y1355191D01*
X6444437Y1355902D01*
X6435394Y1355902D01*
X6432702Y1356258D01*
X6430162Y1357376D01*
X6423507Y1361389D01*
X6409639Y1367637D01*
X6395110Y1372158D01*
X6380175Y1374902D01*
X6364986Y1375816D01*
X6349796Y1374902D01*
X6334861Y1372158D01*
X6320332Y1367637D01*
X6306464Y1361389D01*
X6299809Y1357376D01*
X6297269Y1356258D01*
X6294577Y1355902D01*
X6285585Y1355902D01*
X6279235Y1355191D01*
X6273800Y1353261D01*
X6268872Y1350213D01*
X6264808Y1346098D01*
X6261709Y1341221D01*
X6259830Y1335735D01*
X6259118Y1329436D01*
X6259118Y1320495D01*
X6258712Y1317752D01*
X6257645Y1315262D01*
X6253530Y1308455D01*
X6247282Y1294587D01*
X6242761Y1280058D01*
X6240018Y1265123D01*
X6239103Y1249629D01*
X6239103Y1121359D01*
X6238290Y1117498D01*
X6236106Y1114196D01*
X6186271Y1064361D01*
X6182969Y1062177D01*
X6179108Y1061364D01*
X5198110Y1061364D01*
X5194960Y1061923D01*
X5192064Y1063396D01*
X5189829Y1065682D01*
X5188153Y1068019D01*
X5182514Y1074877D01*
X5101793Y1155598D01*
X5092954Y1162659D01*
X5085334Y1167282D01*
X5083149Y1168400D01*
X5074920Y1171803D01*
X5072583Y1172565D01*
X5063947Y1174699D01*
X5061508Y1175105D01*
X5052669Y1175918D01*
X4797450Y1175918D01*
X4788611Y1175105D01*
X4786172Y1174699D01*
X4777536Y1172565D01*
X4775200Y1171803D01*
X4766970Y1168400D01*
X4764786Y1167282D01*
X4757166Y1162659D01*
X4748326Y1155598D01*
X4644491Y1051763D01*
X4637430Y1042924D01*
X4632807Y1035303D01*
X4631690Y1033119D01*
X4628286Y1024890D01*
X4627524Y1022553D01*
X4625390Y1013917D01*
X4624984Y1011478D01*
X4624171Y1002639D01*
X4624120Y650341D01*
X4624984Y638657D01*
X4627524Y627634D01*
X4631639Y617067D01*
X4637328Y607263D01*
X4644796Y597916D01*
X4682337Y557631D01*
X4684471Y554278D01*
X4685080Y550367D01*
X4684166Y546506D01*
X4681880Y543306D01*
X4678527Y541223D01*
X4674616Y540562D01*
X4666640Y540816D01*
X4653229Y539496D01*
X4640122Y536346D01*
X4627524Y531520D01*
X4615738Y525018D01*
X4604867Y517042D01*
X4595164Y507695D01*
X4586833Y497078D01*
X4579975Y485495D01*
X4574692Y473100D01*
X4571136Y460095D01*
X4569358Y446735D01*
X4569358Y433273D01*
X4571136Y419912D01*
X4574692Y406908D01*
X4579975Y394512D01*
X4586833Y382930D01*
X4595164Y372313D01*
X4604867Y362966D01*
X4615738Y354990D01*
X4627524Y348488D01*
X4640122Y343662D01*
X4653229Y340512D01*
X4666640Y339191D01*
X4680102Y339648D01*
X4693412Y341884D01*
X4706264Y345846D01*
X4718507Y351536D01*
X4723638Y354838D01*
X4727651Y356311D01*
X4731969Y356006D01*
X4735779Y353923D01*
X4738319Y350469D01*
X4739233Y346252D01*
X4739233Y344728D01*
X4740960Y334264D01*
X4744313Y324205D01*
X4749241Y314807D01*
X4755591Y306374D01*
X4763262Y299008D01*
X4771999Y292963D01*
X4781550Y288442D01*
X4791760Y285496D01*
G37*
G36*
X5145328Y470560D02*
G01*
X5174843Y470560D01*
X5174843Y488645D01*
X5174132Y494995D01*
X5172252Y500430D01*
X5169154Y505358D01*
X5165090Y509422D01*
X5160162Y512521D01*
X5154726Y514400D01*
X5148376Y515112D01*
X5145328Y515112D01*
G37*
G36*
X5178348Y652475D02*
G01*
X5181193Y653084D01*
X5192674Y657402D01*
X5203444Y663244D01*
X5213248Y670610D01*
X5221935Y679246D01*
X5229250Y689051D01*
X5234736Y699160D01*
X5178348Y699160D01*
G37*
G36*
X5075631Y652475D02*
G01*
X5075631Y699160D01*
X5019243Y699160D01*
X5024729Y689051D01*
X5032095Y679246D01*
X5040731Y670610D01*
X5050586Y663244D01*
X5061305Y657402D01*
X5072786Y653084D01*
G37*
G36*
X7635290Y1124102D02*
G01*
X8903817Y1124102D01*
X8911590Y1124305D01*
X8919159Y1125016D01*
X8926677Y1126134D01*
X8934094Y1127760D01*
X8941460Y1129792D01*
X8948623Y1132281D01*
X8955684Y1135176D01*
X8962491Y1138529D01*
X8969146Y1142238D01*
X8975496Y1146403D01*
X8981643Y1150874D01*
X8987485Y1155750D01*
X8993124Y1161084D01*
X9542932Y1710893D01*
X9548215Y1716532D01*
X9553092Y1722374D01*
X9557613Y1728470D01*
X9561728Y1734870D01*
X9565487Y1741474D01*
X9568789Y1748332D01*
X9571736Y1755343D01*
X9574225Y1762556D01*
X9576257Y1769872D01*
X9577832Y1777339D01*
X9579000Y1784807D01*
X9579660Y1792427D01*
X9579914Y1799996D01*
X9579660Y1807616D01*
X9579000Y1815185D01*
X9577832Y1822704D01*
X9576257Y1830120D01*
X9574225Y1837486D01*
X9571736Y1844649D01*
X9568789Y1851660D01*
X9565487Y1858518D01*
X9561728Y1865122D01*
X9557613Y1871522D01*
X9553092Y1877669D01*
X9548215Y1883511D01*
X9543034Y1889048D01*
X9537496Y1894230D01*
X9531654Y1899107D01*
X9525508Y1903628D01*
X9519158Y1907743D01*
X9512503Y1911502D01*
X9505696Y1914804D01*
X9498634Y1917700D01*
X9491472Y1920189D01*
X9484106Y1922221D01*
X9476689Y1923846D01*
X9469170Y1924964D01*
X9461601Y1925675D01*
X9453981Y1925878D01*
X9446412Y1925675D01*
X9438843Y1924964D01*
X9431324Y1923846D01*
X9423857Y1922221D01*
X9416542Y1920189D01*
X9409328Y1917700D01*
X9402318Y1914804D01*
X9395510Y1911502D01*
X9388856Y1907743D01*
X9382455Y1903628D01*
X9376359Y1899107D01*
X9370517Y1894230D01*
X9364878Y1888947D01*
X8854795Y1378864D01*
X8851493Y1376680D01*
X8847632Y1375918D01*
X7635290Y1375918D01*
X7619847Y1374952D01*
X7604861Y1372209D01*
X7590383Y1367688D01*
X7576515Y1361490D01*
X7563510Y1353616D01*
X7551521Y1344218D01*
X7540752Y1333500D01*
X7531404Y1321511D01*
X7523530Y1308506D01*
X7517282Y1294638D01*
X7512761Y1280109D01*
X7510018Y1265174D01*
X7509103Y1249984D01*
X7510018Y1234846D01*
X7512761Y1219860D01*
X7517282Y1205382D01*
X7523530Y1191514D01*
X7531404Y1178509D01*
X7540752Y1166520D01*
X7551521Y1155750D01*
X7563510Y1146403D01*
X7576515Y1138529D01*
X7590383Y1132281D01*
X7604861Y1127760D01*
X7619847Y1125016D01*
G37*
G36*
X7080656Y1155039D02*
G01*
X7080656Y1203655D01*
X7032040Y1203655D01*
X7035292Y1197051D01*
X7043013Y1185519D01*
X7052106Y1175105D01*
X7062520Y1166012D01*
X7074052Y1158290D01*
G37*
G36*
X6572656Y1155039D02*
G01*
X6572656Y1203655D01*
X6524040Y1203655D01*
X6527292Y1197051D01*
X6535013Y1185519D01*
X6544106Y1175105D01*
X6554520Y1166012D01*
X6566052Y1158290D01*
G37*
G36*
X6665366Y1155039D02*
G01*
X6671919Y1158290D01*
X6683451Y1166012D01*
X6693865Y1175105D01*
X6703009Y1185519D01*
X6710680Y1197051D01*
X6713931Y1203655D01*
X6665366Y1203655D01*
G37*
G36*
X5602478Y228600D02*
G01*
X5619394Y229565D01*
X5636056Y232410D01*
X5652363Y237083D01*
X5667959Y243535D01*
X5682792Y251764D01*
X5696559Y261518D01*
X5709208Y272796D01*
X5720486Y285445D01*
X5730290Y299212D01*
X5738469Y314045D01*
X5744921Y329692D01*
X5749594Y345948D01*
X5752439Y362610D01*
X5753404Y379780D01*
X5753404Y549198D01*
X5752439Y566369D01*
X5749594Y583082D01*
X5744921Y599338D01*
X5738469Y614984D01*
X5730290Y629767D01*
X5720486Y643585D01*
X5709208Y656183D01*
X5696559Y667461D01*
X5682792Y677265D01*
X5667959Y685444D01*
X5652363Y691946D01*
X5636056Y696620D01*
X5619394Y699465D01*
X5602478Y700379D01*
X5585612Y699465D01*
X5568899Y696620D01*
X5552643Y691946D01*
X5537047Y685444D01*
X5522214Y677265D01*
X5508396Y667461D01*
X5495798Y656183D01*
X5484520Y643585D01*
X5474716Y629767D01*
X5466537Y614984D01*
X5460085Y599338D01*
X5455361Y583082D01*
X5452567Y566369D01*
X5451602Y549198D01*
X5451602Y379780D01*
X5452567Y362610D01*
X5455361Y345948D01*
X5460085Y329692D01*
X5466537Y314045D01*
X5474716Y299212D01*
X5484520Y285445D01*
X5495798Y272796D01*
X5508396Y261518D01*
X5522214Y251764D01*
X5537047Y243535D01*
X5552643Y237083D01*
X5568899Y232410D01*
X5585612Y229565D01*
G37*
G36*
X6665366Y1296365D02*
G01*
X6713931Y1296365D01*
X6710680Y1302918D01*
X6703009Y1314450D01*
X6693865Y1324864D01*
X6683451Y1334008D01*
X6671919Y1341678D01*
X6665366Y1344930D01*
G37*
G36*
X7173366Y1296365D02*
G01*
X7221931Y1296365D01*
X7218680Y1302918D01*
X7211009Y1314450D01*
X7201865Y1324864D01*
X7191451Y1334008D01*
X7179919Y1341678D01*
X7173366Y1344930D01*
G37*
G36*
X7032040Y1296365D02*
G01*
X7080656Y1296365D01*
X7080656Y1344930D01*
X7074052Y1341678D01*
X7062520Y1334008D01*
X7052106Y1324864D01*
X7043013Y1314450D01*
X7035292Y1302918D01*
G37*
G36*
X6524040Y1296365D02*
G01*
X6572656Y1296365D01*
X6572656Y1344930D01*
X6566052Y1341678D01*
X6554520Y1334008D01*
X6544106Y1324864D01*
X6535013Y1314450D01*
X6527292Y1302918D01*
G37*
G36*
X9002369Y1687575D02*
G01*
X9004503Y1688541D01*
X9017508Y1696415D01*
X9029496Y1705762D01*
X9040215Y1716532D01*
X9049613Y1728470D01*
X9057487Y1741474D01*
X9058452Y1743659D01*
X9002369Y1743659D01*
G37*
G36*
X8889644Y1687575D02*
G01*
X8889644Y1743659D01*
X8833561Y1743659D01*
X8834526Y1741474D01*
X8842400Y1728470D01*
X8851747Y1716532D01*
X8862517Y1705762D01*
X8874506Y1696415D01*
X8887510Y1688541D01*
G37*
G36*
X9002369Y1856333D02*
G01*
X9058452Y1856333D01*
X9057487Y1858518D01*
X9049613Y1871522D01*
X9040215Y1883460D01*
X9029496Y1894230D01*
X9017508Y1903628D01*
X9004503Y1911451D01*
X9002369Y1912416D01*
G37*
G36*
X8833561Y1856333D02*
G01*
X8889644Y1856333D01*
X8889644Y1912416D01*
X8887510Y1911451D01*
X8874506Y1903628D01*
X8862517Y1894230D01*
X8851747Y1883460D01*
X8842400Y1871522D01*
X8834526Y1858518D01*
G37*
G36*
X5005019Y1969109D02*
G01*
X5083048Y1970074D01*
X5161026Y1973122D01*
X5238902Y1978152D01*
X5316626Y1985162D01*
X5394147Y1994204D01*
X5471414Y2005177D01*
X5548376Y2018182D01*
X5624982Y2033168D01*
X5701182Y2050135D01*
X5776874Y2069033D01*
X5852109Y2089861D01*
X5926734Y2112670D01*
X6000800Y2137359D01*
X6074156Y2163927D01*
X6146850Y2192375D01*
X6218732Y2222703D01*
X6289852Y2254910D01*
X6360109Y2288895D01*
X6429451Y2324658D01*
X6497878Y2362250D01*
X6565290Y2401570D01*
X6631686Y2442616D01*
X6696964Y2485339D01*
X6761175Y2529738D01*
X6824218Y2575763D01*
X6885990Y2623413D01*
X6946595Y2672638D01*
X7005878Y2723388D01*
X7051192Y2764282D01*
X7054697Y2766364D01*
X7058761Y2766872D01*
X7062673Y2765755D01*
X7065822Y2763215D01*
X7067753Y2759608D01*
X7068108Y2755544D01*
X7066788Y2751683D01*
X7059726Y2739339D01*
X7045909Y2711450D01*
X7033818Y2682748D01*
X7023506Y2653334D01*
X7015022Y2623362D01*
X7008418Y2592933D01*
X7003694Y2562148D01*
X7000900Y2531110D01*
X6999986Y2500020D01*
X7000900Y2468880D01*
X7003694Y2437841D01*
X7008418Y2407056D01*
X7015022Y2376627D01*
X7023506Y2346655D01*
X7033818Y2317242D01*
X7045909Y2288540D01*
X7059726Y2260650D01*
X7075271Y2233625D01*
X7092442Y2207666D01*
X7111187Y2182774D01*
X7131405Y2159101D01*
X7153046Y2136698D01*
X7176058Y2115718D01*
X7200290Y2096160D01*
X7225690Y2078126D01*
X7252157Y2061718D01*
X7279589Y2046986D01*
X7307884Y2033930D01*
X7336942Y2022652D01*
X7366609Y2013204D01*
X7396835Y2005584D01*
X7427417Y1999843D01*
X7458354Y1996033D01*
X7489444Y1994103D01*
X7520584Y1994103D01*
X7551674Y1996033D01*
X7582560Y1999843D01*
X7613192Y2005584D01*
X7643368Y2013204D01*
X7673086Y2022652D01*
X7702092Y2033930D01*
X7730388Y2046986D01*
X7757820Y2061718D01*
X7784287Y2078126D01*
X7809687Y2096160D01*
X7833969Y2115718D01*
X7856931Y2136698D01*
X7878622Y2159101D01*
X7898841Y2182774D01*
X7917586Y2207666D01*
X7934756Y2233625D01*
X7950250Y2260650D01*
X7964119Y2288540D01*
X7976209Y2317242D01*
X7986522Y2346655D01*
X7994954Y2376627D01*
X8001558Y2407056D01*
X8006283Y2437841D01*
X8009128Y2468880D01*
X8009991Y2499969D01*
X8009128Y2531110D01*
X8006283Y2562148D01*
X8001558Y2592933D01*
X7994954Y2623362D01*
X7986522Y2653334D01*
X7976209Y2682748D01*
X7964119Y2711450D01*
X7950250Y2739339D01*
X7934756Y2766364D01*
X7917586Y2792323D01*
X7898841Y2817215D01*
X7878622Y2840888D01*
X7856931Y2863291D01*
X7833969Y2884271D01*
X7809687Y2903829D01*
X7784287Y2921863D01*
X7757820Y2938272D01*
X7730388Y2953054D01*
X7702092Y2966059D01*
X7673086Y2977337D01*
X7643368Y2986786D01*
X7613192Y2994406D01*
X7582560Y3000146D01*
X7551674Y3003956D01*
X7520584Y3005886D01*
X7489444Y3005886D01*
X7458354Y3003956D01*
X7427417Y3000146D01*
X7396835Y2994406D01*
X7366609Y2986786D01*
X7336942Y2977337D01*
X7307884Y2966059D01*
X7279589Y2953054D01*
X7254341Y2939440D01*
X7250480Y2938272D01*
X7246467Y2938678D01*
X7242911Y2940659D01*
X7240422Y2943809D01*
X7239406Y2947720D01*
X7239914Y2951734D01*
X7241997Y2955188D01*
X7281621Y2999130D01*
X7332370Y3058414D01*
X7381595Y3118967D01*
X7429246Y3180791D01*
X7475270Y3243834D01*
X7519670Y3307994D01*
X7562392Y3373323D01*
X7603439Y3439718D01*
X7642758Y3507130D01*
X7680299Y3575558D01*
X7716113Y3644900D01*
X7750098Y3715156D01*
X7782255Y3786276D01*
X7812582Y3858158D01*
X7841081Y3930853D01*
X7867650Y4004208D01*
X7892338Y4078274D01*
X7915148Y4152900D01*
X7935975Y4228134D01*
X7954873Y4303826D01*
X7971840Y4380026D01*
X7986826Y4456633D01*
X7999780Y4533595D01*
X8010804Y4610811D01*
X8019846Y4688382D01*
X8026857Y4766106D01*
X8031886Y4843983D01*
X8034883Y4921961D01*
X8035899Y4999990D01*
X8034883Y5078018D01*
X8031886Y5156047D01*
X8026857Y5233924D01*
X8019846Y5311648D01*
X8010804Y5389168D01*
X7999780Y5466435D01*
X7986826Y5543397D01*
X7971840Y5619953D01*
X7954873Y5696153D01*
X7935975Y5771896D01*
X7915148Y5847080D01*
X7892338Y5921756D01*
X7867650Y5995771D01*
X7841081Y6069177D01*
X7812582Y6141821D01*
X7782255Y6213754D01*
X7750098Y6284823D01*
X7716113Y6355080D01*
X7680299Y6424472D01*
X7642758Y6492849D01*
X7603439Y6560312D01*
X7562392Y6626656D01*
X7519670Y6691985D01*
X7475270Y6756196D01*
X7429246Y6819188D01*
X7381595Y6881012D01*
X7332370Y6941566D01*
X7281621Y7000849D01*
X7241997Y7044791D01*
X7239914Y7048296D01*
X7239406Y7052259D01*
X7240422Y7056170D01*
X7242911Y7059320D01*
X7246467Y7061301D01*
X7250480Y7061708D01*
X7254341Y7060539D01*
X7279589Y7046975D01*
X7307884Y7033920D01*
X7336942Y7022642D01*
X7366609Y7013194D01*
X7396835Y7005574D01*
X7427417Y6999884D01*
X7458354Y6996023D01*
X7489444Y6994093D01*
X7520584Y6994093D01*
X7551674Y6996023D01*
X7582560Y6999884D01*
X7613192Y7005574D01*
X7643368Y7013194D01*
X7673086Y7022642D01*
X7702092Y7033920D01*
X7730388Y7046975D01*
X7757820Y7061708D01*
X7784287Y7078116D01*
X7809687Y7096150D01*
X7833969Y7115708D01*
X7856931Y7136688D01*
X7878622Y7159091D01*
X7898841Y7182764D01*
X7917586Y7207656D01*
X7934756Y7233666D01*
X7950250Y7260640D01*
X7964119Y7288530D01*
X7976209Y7317231D01*
X7986522Y7346645D01*
X7994954Y7376617D01*
X8001558Y7407046D01*
X8006283Y7437831D01*
X8009128Y7468870D01*
X8009991Y7499959D01*
X8009128Y7531150D01*
X8006283Y7562138D01*
X8001558Y7592923D01*
X7994954Y7623403D01*
X7986522Y7653375D01*
X7976209Y7682738D01*
X7964119Y7711440D01*
X7950250Y7739380D01*
X7934756Y7766354D01*
X7917586Y7792364D01*
X7898841Y7817205D01*
X7878622Y7840878D01*
X7856931Y7863281D01*
X7833969Y7884312D01*
X7809687Y7903870D01*
X7784287Y7921853D01*
X7757820Y7938262D01*
X7730388Y7953044D01*
X7702092Y7966049D01*
X7673086Y7977327D01*
X7643368Y7986775D01*
X7613192Y7994396D01*
X7582560Y8000136D01*
X7551674Y8003946D01*
X7520584Y8005876D01*
X7489444Y8005876D01*
X7458354Y8003946D01*
X7427417Y8000136D01*
X7396835Y7994396D01*
X7366609Y7986775D01*
X7336942Y7977327D01*
X7307884Y7966049D01*
X7279589Y7953044D01*
X7252157Y7938262D01*
X7225690Y7921853D01*
X7200290Y7903870D01*
X7176058Y7884312D01*
X7153046Y7863281D01*
X7131405Y7840878D01*
X7111187Y7817205D01*
X7092442Y7792364D01*
X7075271Y7766354D01*
X7059726Y7739380D01*
X7045909Y7711440D01*
X7033818Y7682738D01*
X7023506Y7653375D01*
X7015022Y7623403D01*
X7008418Y7592923D01*
X7003694Y7562138D01*
X7000900Y7531150D01*
X6999986Y7500010D01*
X7000900Y7468870D01*
X7003694Y7437831D01*
X7008418Y7407046D01*
X7015022Y7376617D01*
X7023506Y7346645D01*
X7033818Y7317231D01*
X7045909Y7288530D01*
X7059726Y7260640D01*
X7066788Y7248347D01*
X7068108Y7244486D01*
X7067753Y7240422D01*
X7065822Y7236815D01*
X7062673Y7234224D01*
X7058761Y7233107D01*
X7054697Y7233666D01*
X7051192Y7235698D01*
X7005878Y7276592D01*
X6946595Y7327392D01*
X6885990Y7376617D01*
X6824218Y7424216D01*
X6761175Y7470292D01*
X6696964Y7514691D01*
X6631686Y7557414D01*
X6565290Y7598460D01*
X6497878Y7637729D01*
X6429451Y7675321D01*
X6360109Y7711084D01*
X6289852Y7745120D01*
X6218732Y7777276D01*
X6146850Y7807604D01*
X6074156Y7836052D01*
X6000800Y7862671D01*
X5926734Y7887360D01*
X5852109Y7910118D01*
X5776874Y7930946D01*
X5701182Y7949895D01*
X5624982Y7966811D01*
X5548376Y7981797D01*
X5471414Y7994802D01*
X5394147Y8005825D01*
X5316626Y8014868D01*
X5238902Y8021878D01*
X5161026Y8026908D01*
X5083048Y8029905D01*
X5005019Y8030921D01*
X4926939Y8029905D01*
X4848961Y8026908D01*
X4771085Y8021878D01*
X4693361Y8014868D01*
X4615840Y8005825D01*
X4538573Y7994802D01*
X4461611Y7981797D01*
X4385005Y7966811D01*
X4308856Y7949895D01*
X4233113Y7930946D01*
X4157929Y7910118D01*
X4083253Y7887360D01*
X4009237Y7862671D01*
X3935831Y7836052D01*
X3863187Y7807604D01*
X3791254Y7777276D01*
X3720134Y7745120D01*
X3649878Y7711084D01*
X3580536Y7675321D01*
X3512108Y7637729D01*
X3444697Y7598460D01*
X3378301Y7557414D01*
X3313023Y7514691D01*
X3248812Y7470292D01*
X3185820Y7424216D01*
X3123996Y7376617D01*
X3063443Y7327392D01*
X3004159Y7276592D01*
X2958795Y7235698D01*
X2955290Y7233666D01*
X2951226Y7233107D01*
X2947314Y7234224D01*
X2944164Y7236815D01*
X2942234Y7240422D01*
X2941929Y7244435D01*
X2943199Y7248347D01*
X2950260Y7260640D01*
X2964129Y7288530D01*
X2976219Y7317231D01*
X2986481Y7346645D01*
X2994964Y7376617D01*
X3001568Y7407046D01*
X3006293Y7437831D01*
X3009087Y7468870D01*
X3010001Y7499959D01*
X3009087Y7531150D01*
X3006293Y7562138D01*
X3001568Y7592923D01*
X2994964Y7623403D01*
X2986481Y7653375D01*
X2976219Y7682738D01*
X2964129Y7711440D01*
X2950260Y7739380D01*
X2934716Y7766354D01*
X2917596Y7792364D01*
X2898851Y7817205D01*
X2878582Y7840878D01*
X2856941Y7863281D01*
X2833928Y7884312D01*
X2809697Y7903870D01*
X2784297Y7921853D01*
X2757830Y7938262D01*
X2730398Y7953044D01*
X2702102Y7966049D01*
X2673045Y7977327D01*
X2643378Y7986775D01*
X2613202Y7994396D01*
X2582570Y8000136D01*
X2551684Y8003946D01*
X2520594Y8005876D01*
X2489403Y8005876D01*
X2458313Y8003946D01*
X2427427Y8000136D01*
X2396794Y7994396D01*
X2366619Y7986775D01*
X2336952Y7977327D01*
X2307894Y7966049D01*
X2279599Y7953044D01*
X2252167Y7938262D01*
X2225700Y7921853D01*
X2200300Y7903870D01*
X2176068Y7884312D01*
X2153056Y7863281D01*
X2131415Y7840878D01*
X2111146Y7817205D01*
X2092452Y7792364D01*
X2075281Y7766354D01*
X2059736Y7739380D01*
X2045868Y7711440D01*
X2033778Y7682738D01*
X2023516Y7653375D01*
X2015032Y7623403D01*
X2008428Y7592923D01*
X2003704Y7562138D01*
X2000910Y7531150D01*
X1999996Y7500010D01*
X2000910Y7468870D01*
X2003704Y7437831D01*
X2008428Y7407046D01*
X2015032Y7376617D01*
X2023516Y7346645D01*
X2033778Y7317231D01*
X2045868Y7288530D01*
X2059736Y7260640D01*
X2075281Y7233666D01*
X2092452Y7207656D01*
X2111146Y7182764D01*
X2131415Y7159091D01*
X2153056Y7136688D01*
X2176068Y7115708D01*
X2200300Y7096150D01*
X2225700Y7078116D01*
X2252167Y7061708D01*
X2279599Y7046975D01*
X2307894Y7033920D01*
X2336952Y7022642D01*
X2366619Y7013194D01*
X2396794Y7005574D01*
X2427427Y6999884D01*
X2458313Y6996023D01*
X2489403Y6994093D01*
X2520594Y6994093D01*
X2551684Y6996023D01*
X2582570Y6999884D01*
X2613202Y7005574D01*
X2643378Y7013194D01*
X2673045Y7022642D01*
X2702102Y7033920D01*
X2730398Y7046975D01*
X2755646Y7060539D01*
X2759506Y7061708D01*
X2763520Y7061301D01*
X2767076Y7059320D01*
X2769565Y7056170D01*
X2770632Y7052259D01*
X2770073Y7048296D01*
X2768041Y7044791D01*
X2728366Y7000849D01*
X2677617Y6941566D01*
X2628392Y6881012D01*
X2580741Y6819188D01*
X2534716Y6756196D01*
X2490317Y6691985D01*
X2447594Y6626656D01*
X2406548Y6560312D01*
X2367229Y6492849D01*
X2329688Y6424472D01*
X2293874Y6355080D01*
X2259888Y6284823D01*
X2227732Y6213754D01*
X2197404Y6141821D01*
X2168906Y6069177D01*
X2142337Y5995771D01*
X2117648Y5921756D01*
X2094890Y5847080D01*
X2074011Y5771896D01*
X2055114Y5696153D01*
X2038197Y5619953D01*
X2023211Y5543397D01*
X2010206Y5466435D01*
X1999183Y5389168D01*
X1990140Y5311648D01*
X1983130Y5233924D01*
X1978101Y5156047D01*
X1975104Y5078018D01*
X1974088Y4999990D01*
X1975104Y4921961D01*
X1978101Y4843983D01*
X1983130Y4766106D01*
X1990140Y4688382D01*
X1999183Y4610811D01*
X2010206Y4533595D01*
X2023211Y4456633D01*
X2038197Y4380026D01*
X2055114Y4303826D01*
X2074011Y4228134D01*
X2094890Y4152900D01*
X2117648Y4078274D01*
X2142337Y4004208D01*
X2168906Y3930853D01*
X2197404Y3858158D01*
X2227732Y3786276D01*
X2259888Y3715156D01*
X2293874Y3644900D01*
X2329688Y3575558D01*
X2367229Y3507130D01*
X2406548Y3439718D01*
X2447594Y3373323D01*
X2490317Y3307994D01*
X2534716Y3243834D01*
X2580741Y3180791D01*
X2628392Y3118967D01*
X2677617Y3058414D01*
X2728366Y2999130D01*
X2768041Y2955188D01*
X2770073Y2951734D01*
X2770632Y2947720D01*
X2769565Y2943809D01*
X2767076Y2940659D01*
X2763520Y2938678D01*
X2759506Y2938272D01*
X2755646Y2939440D01*
X2730398Y2953054D01*
X2702102Y2966059D01*
X2673045Y2977337D01*
X2643378Y2986786D01*
X2613202Y2994406D01*
X2582570Y3000146D01*
X2551684Y3003956D01*
X2520594Y3005886D01*
X2489403Y3005886D01*
X2458313Y3003956D01*
X2427427Y3000146D01*
X2396794Y2994406D01*
X2366619Y2986786D01*
X2336952Y2977337D01*
X2307894Y2966059D01*
X2279599Y2953054D01*
X2252167Y2938272D01*
X2225700Y2921863D01*
X2200300Y2903829D01*
X2176068Y2884271D01*
X2153056Y2863291D01*
X2131415Y2840888D01*
X2111146Y2817215D01*
X2092452Y2792323D01*
X2075281Y2766364D01*
X2059736Y2739339D01*
X2045868Y2711450D01*
X2033778Y2682748D01*
X2023516Y2653334D01*
X2015032Y2623362D01*
X2008428Y2592933D01*
X2003704Y2562148D01*
X2000910Y2531110D01*
X1999996Y2500020D01*
X2000910Y2468880D01*
X2003704Y2437841D01*
X2008428Y2407056D01*
X2015032Y2376627D01*
X2023516Y2346655D01*
X2033778Y2317242D01*
X2045868Y2288540D01*
X2059736Y2260650D01*
X2075281Y2233625D01*
X2092452Y2207666D01*
X2111146Y2182774D01*
X2131415Y2159101D01*
X2153056Y2136698D01*
X2176068Y2115718D01*
X2200300Y2096160D01*
X2225700Y2078126D01*
X2252167Y2061718D01*
X2279599Y2046986D01*
X2307894Y2033930D01*
X2336952Y2022652D01*
X2366619Y2013204D01*
X2396794Y2005584D01*
X2427427Y1999843D01*
X2458313Y1996033D01*
X2489403Y1994103D01*
X2520594Y1994103D01*
X2551684Y1996033D01*
X2582570Y1999843D01*
X2613202Y2005584D01*
X2643378Y2013204D01*
X2673045Y2022652D01*
X2702102Y2033930D01*
X2730398Y2046986D01*
X2757830Y2061718D01*
X2784297Y2078126D01*
X2809697Y2096160D01*
X2833928Y2115718D01*
X2856941Y2136698D01*
X2878582Y2159101D01*
X2898851Y2182774D01*
X2917596Y2207666D01*
X2934716Y2233625D01*
X2950260Y2260650D01*
X2964129Y2288540D01*
X2976219Y2317242D01*
X2986481Y2346655D01*
X2994964Y2376627D01*
X3001568Y2407056D01*
X3006293Y2437841D01*
X3009087Y2468880D01*
X3010001Y2499969D01*
X3009087Y2531110D01*
X3006293Y2562148D01*
X3001568Y2592933D01*
X2994964Y2623362D01*
X2986481Y2653334D01*
X2976219Y2682748D01*
X2964129Y2711450D01*
X2950260Y2739339D01*
X2943199Y2751683D01*
X2941929Y2755544D01*
X2942234Y2759608D01*
X2944164Y2763215D01*
X2947314Y2765755D01*
X2951226Y2766872D01*
X2955290Y2766364D01*
X2958795Y2764282D01*
X3004159Y2723388D01*
X3063443Y2672638D01*
X3123996Y2623413D01*
X3185820Y2575763D01*
X3248812Y2529738D01*
X3313023Y2485339D01*
X3378301Y2442616D01*
X3444697Y2401570D01*
X3512108Y2362250D01*
X3580536Y2324658D01*
X3649878Y2288895D01*
X3720134Y2254910D01*
X3791254Y2222703D01*
X3863187Y2192375D01*
X3935831Y2163927D01*
X4009237Y2137359D01*
X4083253Y2112670D01*
X4157929Y2089861D01*
X4233113Y2069033D01*
X4308856Y2050135D01*
X4385005Y2033168D01*
X4461611Y2018182D01*
X4538573Y2005177D01*
X4615840Y1994204D01*
X4693361Y1985162D01*
X4771085Y1978152D01*
X4848961Y1973122D01*
X4926939Y1970074D01*
G37*
G36*
X7173366Y1155039D02*
G01*
X7179919Y1158290D01*
X7191451Y1166012D01*
X7201865Y1175105D01*
X7211009Y1185519D01*
X7218680Y1197051D01*
X7221931Y1203655D01*
X7173366Y1203655D01*
G37*

%LPD*%
D11*
X7635001Y1250000D02*
G01*
X8903987Y1250000D01*
X9453999Y1800011D01*
X6364986Y1249934D02*
G01*
X6364986Y1065021D01*
X6235445Y935481D01*
X5126990Y935481D01*
D12*
X4796797Y546290D02*
G01*
X4700015Y649986D01*
X4700015Y999997D01*
X4800091Y1100073D01*
X5050027Y1100073D01*
X5126990Y1023112D01*
X5126990Y935481D01*
X4840003Y449999D02*
G01*
X4840003Y499998D01*
X4796797Y546290D01*
D15*
G01*
X5128945Y439216D03*
G01*
X5063947Y439216D03*
G01*
X4998948Y439216D03*
G01*
X4933950Y439216D03*
G01*
X4868951Y439216D03*
G36*
X6285001Y1329999D02*
G01*
X6445001Y1329999D01*
X6445001Y1170000D01*
X6285001Y1170000D01*
G37*
D17*
G01*
X6619011Y1250010D03*
G01*
X7127011Y1250010D03*
G01*
X7635011Y1250010D03*
D18*
G01*
X4669993Y440004D03*
G01*
X5329986Y440004D03*
D11*
G01*
X8946006Y1800021D03*
G01*
X9454006Y1800021D03*
D13*
G01*
X4796790Y546277D03*
D14*
G01*
X107205Y8892791D03*
G01*
X107205Y7892790D03*
G01*
X107205Y6892790D03*
G01*
X107205Y5892792D03*
G01*
X107205Y4892791D03*
G01*
X107205Y3892791D03*
G01*
X107205Y2892790D03*
G01*
X107205Y1892792D03*
G01*
X1107206Y9892792D03*
G01*
X1107206Y8892791D03*
G01*
X1107206Y7892790D03*
G01*
X1107206Y6892790D03*
G01*
X1107206Y5892792D03*
G01*
X1107206Y4892791D03*
G01*
X1107206Y3892791D03*
G01*
X1107206Y2892790D03*
G01*
X1107206Y1892792D03*
G01*
X1107206Y892792D03*
G01*
X2107206Y9892792D03*
G01*
X2107206Y8892791D03*
G01*
X2107206Y6892790D03*
G01*
X2107206Y3892791D03*
G01*
X2107206Y1892792D03*
G01*
X2107206Y892792D03*
G01*
X3107204Y9892792D03*
G01*
X3107204Y8892791D03*
G01*
X3107204Y7892790D03*
G01*
X3107204Y1892792D03*
G01*
X3107204Y892792D03*
G01*
X4107205Y9892792D03*
G01*
X4107205Y8892791D03*
G01*
X4107205Y1892792D03*
G01*
X4107205Y892792D03*
G01*
X5107205Y9892792D03*
G01*
X5107205Y8892791D03*
G01*
X5107205Y1892792D03*
G01*
X6107206Y9892792D03*
G01*
X6107206Y8892791D03*
G01*
X6107206Y7892790D03*
G01*
X6107206Y1892792D03*
G01*
X7107207Y9892792D03*
G01*
X7107207Y8892791D03*
G01*
X7107207Y1892792D03*
G01*
X7107207Y892792D03*
G01*
X8107205Y9892792D03*
G01*
X8107205Y8892791D03*
G01*
X8107205Y7892790D03*
G01*
X8107205Y6892790D03*
G01*
X8107205Y5892792D03*
G01*
X8107205Y4892791D03*
G01*
X8107205Y3892791D03*
G01*
X8107205Y2892790D03*
G01*
X8107205Y1892792D03*
G01*
X8107205Y892792D03*
G01*
X9107205Y8892791D03*
G01*
X9107205Y7892790D03*
G01*
X9107205Y6892790D03*
G01*
X9107205Y5892792D03*
G01*
X9107205Y1892792D03*
D19*
X4903025Y735507D02*
G01*
X4843005Y735507D01*
X4903025Y935507D02*
G01*
X4843005Y935507D01*
X5157025Y735507D02*
G01*
X5097005Y735507D01*
D20*
X4397502Y379521D02*
G01*
X4397502Y549508D01*
X5602503Y379521D02*
G01*
X5602503Y549508D01*
D19*
X5157025Y935507D02*
G01*
X5097005Y935507D01*
D21*
X5359984Y204993D02*
G01*
X5359984Y114993D01*
X4639995Y204993D02*
G01*
X4639995Y114993D01*
M02*
